<svg xmlns="http://www.w3.org/2000/svg" width="104.504" height="108.518" viewBox="0 0 104.504 108.518">
  <g id="Group_270" data-name="Group 270" transform="translate(-330.114 212.434)">
    <g id="Group_209" data-name="Group 209" transform="translate(330.114 -212.434)">
      <g id="Group_203" data-name="Group 203">
        <path id="Path_89" data-name="Path 89" d="M433.079-150.018a3.315,3.315,0,0,0,1.529-2.846c-.1-1.359-1.01-1.956-1.9-2.588a3.232,3.232,0,0,1-1.812-2.723A3.23,3.23,0,0,1,432.7-160.9c.9-.631,1.8-1.228,1.906-2.584a3.323,3.323,0,0,0-1.529-2.846,3.59,3.59,0,0,1-1.663-2.69c-.025-1.269.763-1.942,1.525-2.742a4.56,4.56,0,0,0,.967-1.328,2.521,2.521,0,0,0,.211-.844,3.222,3.222,0,0,0-.135-1.012,2.554,2.554,0,0,0-1.144-1.454,4.578,4.578,0,0,0-1.563-.512c-1.081-.208-2.119-.3-2.832-1.34a3.6,3.6,0,0,1-.227-3.153,3.3,3.3,0,0,0-.444-3.2c-.885-1.036-1.971-.979-3.067-.957a3.217,3.217,0,0,1-3.072-1.125,3.219,3.219,0,0,1-.131-3.27c.356-1.036.743-2.053.029-3.214a3.316,3.316,0,0,0-2.911-1.405,3.61,3.61,0,0,1-2.93-1.194c-.771-1.005-.533-2.017-.391-3.111a4.586,4.586,0,0,0,0-1.646,2.553,2.553,0,0,0-1.029-1.541,2.555,2.555,0,0,0-1.783-.506,4.588,4.588,0,0,0-1.566.506c-1,.47-1.886,1.01-3.08.587s-1.605-1.405-2.038-2.42-.9-2.018-2.233-2.338-2.173.357-3.049,1.017a3.229,3.229,0,0,1-3.147.885,3.216,3.216,0,0,1-2.026-2.574c-.316-1.05-.6-2.1-1.859-2.624a3.3,3.3,0,0,0-3.184.569,3.6,3.6,0,0,1-3.067.767c-1.212-.35-1.621-1.312-2.156-2.273a4.591,4.591,0,0,0-.974-1.325,2.554,2.554,0,0,0-1.733-.638,2.561,2.561,0,0,0-1.735.636,4.585,4.585,0,0,0-.974,1.324c-.536.96-.945,1.922-2.16,2.272a3.6,3.6,0,0,1-3.064-.767,3.312,3.312,0,0,0-3.187-.57c-1.261.526-1.541,1.574-1.857,2.625a3.218,3.218,0,0,1-2.025,2.575,3.225,3.225,0,0,1-3.149-.884c-.878-.66-1.726-1.339-3.051-1.018s-1.8,1.336-2.235,2.339-.836,2-2.039,2.419-2.084-.117-3.081-.589a4.623,4.623,0,0,0-1.565-.506,2.56,2.56,0,0,0-1.782.5,2.555,2.555,0,0,0-1.029,1.54,4.582,4.582,0,0,0,0,1.645c.14,1.094.378,2.1-.394,3.11a3.6,3.6,0,0,1-2.929,1.19,3.313,3.313,0,0,0-2.91,1.406c-.715,1.161-.329,2.175.029,3.213a3.218,3.218,0,0,1-.13,3.267,3.221,3.221,0,0,1-3.072,1.13c-1.094-.023-2.18-.079-3.067.957a3.3,3.3,0,0,0-.442,3.2,3.617,3.617,0,0,1-.229,3.153c-.715,1.043-1.753,1.131-2.835,1.336a4.609,4.609,0,0,0-1.563.512,2.557,2.557,0,0,0-1.146,1.454,2.557,2.557,0,0,0,.071,1.856,4.659,4.659,0,0,0,.97,1.33c.76.8,1.547,1.474,1.52,2.743a3.593,3.593,0,0,1-1.662,2.692,3.314,3.314,0,0,0-1.529,2.846c.1,1.356,1.008,1.955,1.906,2.586a3.236,3.236,0,0,1,1.812,2.719,3.235,3.235,0,0,1-1.811,2.722c-.9.631-1.8,1.229-1.906,2.586a3.317,3.317,0,0,0,1.529,2.846,3.588,3.588,0,0,1,1.66,2.693c.024,1.27-.761,1.943-1.525,2.743a4.618,4.618,0,0,0-.969,1.329,2.6,2.6,0,0,0-.21.844,3.22,3.22,0,0,0,.136,1.012,2.557,2.557,0,0,0,1.144,1.457,4.6,4.6,0,0,0,1.561.513c1.081.208,2.119.3,2.834,1.34a3.608,3.608,0,0,1,.227,3.152,3.3,3.3,0,0,0,.443,3.2c.888,1.036,1.971.979,3.066.957a3.218,3.218,0,0,1,3.073,1.127,3.228,3.228,0,0,1,.133,3.27c-.356,1.036-.742,2.051-.029,3.212a3.316,3.316,0,0,0,2.913,1.408,3.6,3.6,0,0,1,2.928,1.193c.774,1.007.535,2.018.392,3.111a4.727,4.727,0,0,0,0,1.645,2.571,2.571,0,0,0,1.029,1.542,2.556,2.556,0,0,0,1.787.505,4.58,4.58,0,0,0,1.565-.5c1-.472,1.887-1.011,3.084-.588s1.6,1.4,2.038,2.418.9,2.018,2.233,2.338,2.17-.358,3.045-1.017a3.226,3.226,0,0,1,3.148-.885,3.217,3.217,0,0,1,2.022,2.573c.316,1.05.6,2.1,1.856,2.624a3.305,3.305,0,0,0,3.185-.57,3.6,3.6,0,0,1,3.064-.767c1.215.35,1.623,1.312,2.156,2.273a4.621,4.621,0,0,0,.974,1.325,2.567,2.567,0,0,0,1.736.638,2.565,2.565,0,0,0,1.733-.636,4.611,4.611,0,0,0,.975-1.325c.536-.96.943-1.922,2.159-2.271a3.6,3.6,0,0,1,3.063.769,3.307,3.307,0,0,0,3.187.569c1.261-.525,1.54-1.573,1.858-2.624a3.211,3.211,0,0,1,2.024-2.575,3.23,3.23,0,0,1,3.148.884c.875.659,1.722,1.339,3.047,1.016s1.8-1.333,2.233-2.336.834-2,2.039-2.418,2.084.116,3.081.589a4.618,4.618,0,0,0,1.563.508,2.57,2.57,0,0,0,.869-.062,3.163,3.163,0,0,0,.916-.443,2.554,2.554,0,0,0,1.031-1.539,4.658,4.658,0,0,0,0-1.646c-.14-1.093-.378-2.106.394-3.111a3.609,3.609,0,0,1,2.931-1.191,3.316,3.316,0,0,0,2.911-1.406c.715-1.16.329-2.177-.029-3.213a3.222,3.222,0,0,1,.13-3.269,3.223,3.223,0,0,1,3.073-1.13c1.094.025,2.18.08,3.066-.955a3.309,3.309,0,0,0,.445-3.2,3.593,3.593,0,0,1,.229-3.152c.715-1.045,1.752-1.132,2.834-1.338a4.615,4.615,0,0,0,1.564-.513,2.562,2.562,0,0,0,1.146-1.454,3.218,3.218,0,0,0,.136-1.011,2.572,2.572,0,0,0-.21-.846,4.629,4.629,0,0,0-.968-1.33c-.76-.8-1.549-1.474-1.522-2.745A3.6,3.6,0,0,1,433.079-150.018Z" transform="translate(-330.114 212.434)" fill="#3e3e3e"/>
      </g>
      <g id="Group_208" data-name="Group 208" transform="translate(29.12 30.446)">
        <g id="Group_205" data-name="Group 205" transform="translate(0 2.375)">
          <g id="Group_204" data-name="Group 204">
            <rect id="Rectangle_72" data-name="Rectangle 72" width="1.55" height="59.169" transform="translate(0 1.096) rotate(-45)" fill="#fff"/>
          </g>
        </g>
        <g id="Group_207" data-name="Group 207" transform="translate(0.001 2.375)">
          <g id="Group_206" data-name="Group 206">
            <rect id="Rectangle_73" data-name="Rectangle 73" width="59.169" height="1.55" transform="translate(0 41.84) rotate(-45.002)" fill="#fff"/>
          </g>
        </g>
        <path id="Path_90" data-name="Path 90" d="M393.351-173.155h-5.528a.445.445,0,0,0-.331.16l-2.763,3.508a.429.429,0,0,0,.024.55c2.746,2.86,5.532,5.695,8.3,8.54a.387.387,0,0,0,.044.037.405.405,0,0,0,.258.091.4.4,0,0,0,.257-.091.294.294,0,0,0,.045-.037c2.765-2.846,5.55-5.68,8.3-8.54a.429.429,0,0,0,.024-.55l-2.763-3.508a.445.445,0,0,0-.331-.16Zm0,11.094-2.184-6.743h4.369l-2.185,6.743Zm0-7.587h-1.894l1.894-2.4,1.894,2.4Zm2.765-.26-1.9-2.4h3.788l-1.893,2.4Zm2.763-2.144,1.893,2.4h-3.787l1.564-1.987.329-.417Zm1.765,3.248-6.333,6.519,2.111-6.519Zm-10.057-1.1-1.894-2.4h3.788l-1.894,2.4Zm-2.764-2.144.329.417,1.564,1.987H385.93l1.893-2.4Zm-1.765,3.248h4.221l2.112,6.519Z" transform="translate(-371.495 173.155)" fill="#fff"/>
      </g>
    </g>
    <g id="Group_210" data-name="Group 210" transform="translate(354.342 -163.18)">
      <path id="Path_91" data-name="Path 91" d="M361.371-138.965v-9.926H362.8l3.166,5.007a32.186,32.186,0,0,1,1.782,3.24l.029-.015c-.119-1.325-.147-2.533-.147-4.064v-4.168h1.208v9.926h-1.3L364.39-144a31.506,31.506,0,0,1-1.856-3.314l-.045.015c.074,1.252.1,2.444.1,4.093v4.242Z" transform="translate(-361.371 148.891)" fill="#fff"/>
    </g>
    <g id="Group_211" data-name="Group 211" transform="translate(400.585 -163.18)">
      <path id="Path_92" data-name="Path 92" d="M421.029-148.891h5.345v1.06h-4.049v3.313h3.755v1.061h-3.755v4.491h-1.3Z" transform="translate(-421.029 148.891)" fill="#fff"/>
    </g>
    <g id="Group_212" data-name="Group 212" transform="translate(377.294 -145.243)">
      <path id="Path_93" data-name="Path 93" d="M394-124.662h-3.018v-1.089h7.348v1.089H395.3v8.836H394Z" transform="translate(-390.981 125.751)" fill="#fff"/>
    </g>
    <circle id="Ellipse_253" data-name="Ellipse 253" cx="44.065" cy="44.065" r="44.065" transform="translate(337.183 -202.674)" fill="none" stroke="#fff" stroke-width="1"/>
    <path id="Path_94" data-name="Path 94" d="M429.009-176.627a36.725,36.725,0,0,1,10.811,26.07,36.761,36.761,0,0,1-13.055,28.133" transform="translate(-21.734 -8.052)" fill="none" stroke="#fff" stroke-width="1"/>
    <path id="Path_95" data-name="Path 95" d="M362.108-121.666a36.769,36.769,0,0,1-13.552-28.546,36.7,36.7,0,0,1,9.671-24.879" transform="translate(-4.147 -8.397)" fill="none" stroke="#fff" stroke-width="1"/>
    <g id="Group_213" data-name="Group 213" transform="translate(361.994 -128.317)">
      <path id="Path_96" data-name="Path 96" d="M414.958-102.766a3.5,3.5,0,0,1,1.151-.813,2.446,2.446,0,0,1,3.456,1.308,2.6,2.6,0,0,1-1.309,3.636,2.86,2.86,0,0,1-1.219.322l-.087-.567a2.464,2.464,0,0,0,1.047-.25,1.943,1.943,0,0,0,.931-2.818A1.9,1.9,0,0,0,416.22-103a2.692,2.692,0,0,0-.905.664Z" transform="translate(-381.073 103.902)" fill="#fff"/>
      <path id="Path_97" data-name="Path 97" d="M410.456-98.83l1.927-.621-.581-1.8-2.156.7-.171-.532,2.8-.9,1.6,4.974-2.694.869-.171-.532,2.044-.659-.51-1.579-1.925.621Z" transform="translate(-379.84 103.482)" fill="#fff"/>
      <path id="Path_98" data-name="Path 98" d="M407.637-95.309a7.194,7.194,0,0,1-1.257.352,2.135,2.135,0,0,1-1.564-.134,1.328,1.328,0,0,1-.591-.9,1.373,1.373,0,0,1,.716-1.5l0-.015a1.337,1.337,0,0,1-.953-.9,8.212,8.212,0,0,0-.666-1.332l.684-.131a6.655,6.655,0,0,1,.577,1.16c.287.67.613.892,1.219.8l.623-.119L406-100.241l.67-.128Zm-1.118-2.208-.677.13c-.708.136-1.081.61-.97,1.2.129.67.662.86,1.363.732a2.666,2.666,0,0,0,.643-.186Z" transform="translate(-378.456 103.117)" fill="#fff"/>
      <path id="Path_99" data-name="Path 99" d="M399.878-94.624l1.585-.1.037.573-3.859.25-.037-.572,1.593-.1-.3-4.639.68-.044Z" transform="translate(-377.171 102.868)" fill="#fff"/>
      <path id="Path_100" data-name="Path 100" d="M394.542-93.94l.14-5.222.681.018-.14,5.223Z" transform="translate(-376.482 102.845)" fill="#fff"/>
      <path id="Path_101" data-name="Path 101" d="M390.77-94.115l-2.791-.333.065-.553,2.116.252.206-1.731-1.962-.233.066-.554,1.963.233.279-2.346.677.081Z" transform="translate(-375.006 102.894)" fill="#fff"/>
      <path id="Path_102" data-name="Path 102" d="M384.438-95.192l1.089-5.108.667.142-1.088,5.108Z" transform="translate(-374.21 103.101)" fill="#fff"/>
      <path id="Path_103" data-name="Path 103" d="M379.017-99.566l1.929.6.566-1.8-2.159-.676.166-.533,2.809.88-1.56,4.983-2.7-.845.167-.533,2.049.641.495-1.582-1.929-.6Z" transform="translate(-372.778 103.477)" fill="#fff"/>
      <path id="Path_104" data-name="Path 104" d="M374.4-98.256a9.973,9.973,0,0,1-1.353-.515,3,3,0,0,1-1.639-1.49,2.419,2.419,0,0,1,.131-2.012,2.775,2.775,0,0,1,1.545-1.519,3.236,3.236,0,0,1,2.412.3,11.3,11.3,0,0,1,1.089.581Zm1.348-4.475a4.209,4.209,0,0,0-.6-.325,2.009,2.009,0,0,0-2.957,1.061,1.864,1.864,0,0,0,1.059,2.725,4.45,4.45,0,0,0,.746.273Z" transform="translate(-371.243 103.914)" fill="#fff"/>
    </g>
    <g id="Group_214" data-name="Group 214" transform="translate(356.406 -197.992)">
      <path id="Path_105" data-name="Path 105" d="M364.034-184.337a6.753,6.753,0,0,1,.989-.756,2.118,2.118,0,0,1,1.408-.443,1.077,1.077,0,0,1,.867.542,1.241,1.241,0,0,1-.132,1.442l.008.013a1.344,1.344,0,0,1,1.617.536,1.352,1.352,0,0,1,.176,1.118,2.591,2.591,0,0,1-1.258,1.376,8.1,8.1,0,0,1-.923.512Zm1.727,1.448.516-.328c.595-.377.752-.926.482-1.353-.328-.517-.85-.471-1.425-.105a2.822,2.822,0,0,0-.48.359Zm1.335,2.108a3.593,3.593,0,0,0,.5-.277c.589-.373,1-.938.6-1.573-.386-.608-1.067-.526-1.689-.132l-.472.3Z" transform="translate(-364.034 191.946)" fill="#fff"/>
      <path id="Path_106" data-name="Path 106" d="M370.031-187.742l.616-.294,2,4.2,2.015-.961.247.518-2.631,1.255Z" transform="translate(-365.383 192.505)" fill="#fff"/>
      <path id="Path_107" data-name="Path 107" d="M380.654-189.3a2.449,2.449,0,0,1-1.465,3.326,2.4,2.4,0,0,1-3.062-1.805,2.484,2.484,0,0,1,1.474-3.353A2.393,2.393,0,0,1,380.654-189.3Zm-3.849,1.274c.368,1.128,1.239,1.846,2.249,1.516,1.046-.342,1.281-1.471.928-2.554-.333-1.017-1.164-1.887-2.255-1.531C376.7-190.258,376.44-189.147,376.806-188.027Z" transform="translate(-366.714 193.23)" fill="#fff"/>
      <path id="Path_108" data-name="Path 108" d="M388.292-188.349a3.5,3.5,0,0,1-1.326.479,2.446,2.446,0,0,1-2.986-2.178,2.594,2.594,0,0,1,2.226-3.159,2.855,2.855,0,0,1,1.262.012l-.068.57a2.435,2.435,0,0,0-1.075-.036,1.943,1.943,0,0,0-1.646,2.469,1.9,1.9,0,0,0,2.334,1.732,2.7,2.7,0,0,0,1.05-.4Z" transform="translate(-368.508 193.682)" fill="#fff"/>
      <path id="Path_109" data-name="Path 109" d="M391.157-193.655l.681-.028.1,2.518.024,0c.13-.207.261-.4.386-.575l1.515-2.026.829-.034-1.79,2.294,2.163,2.921-.8.033-1.826-2.492-.471.594.081,1.991-.681.029Z" transform="translate(-370.133 193.802)" fill="#fff"/>
      <path id="Path_110" data-name="Path 110" d="M401.119-188.325a3.508,3.508,0,0,1-1.4.127,2.445,2.445,0,0,1-2.333-2.863,2.592,2.592,0,0,1,2.954-2.489,2.854,2.854,0,0,1,1.216.331l-.21.534a2.451,2.451,0,0,0-1.031-.308,1.941,1.941,0,0,0-2.216,1.97,1.9,1.9,0,0,0,1.816,2.266,2.7,2.7,0,0,0,1.115-.121Z" transform="translate(-371.53 193.748)" fill="#fff"/>
      <path id="Path_111" data-name="Path 111" d="M405.895-192.709l-.5,2.137,2.463.576.5-2.137.657.153-1.19,5.09-.657-.153.558-2.387-2.462-.575-.557,2.387-.664-.156,1.19-5.089Z" transform="translate(-373.03 193.591)" fill="#fff"/>
      <path id="Path_112" data-name="Path 112" d="M412.372-186.943l-1.1,1.332-.657-.259,3.578-4.208.75.3-.259,5.517-.672-.264.085-1.735Zm1.787.139.077-1.587c.017-.361.058-.677.1-.988l-.021-.009c-.179.263-.376.528-.586.786l-1.03,1.218Z" transform="translate(-374.508 192.965)" fill="#fff"/>
      <path id="Path_113" data-name="Path 113" d="M420.5-187.362l-2.415,4.629-.6-.315,2.415-4.63Z" transform="translate(-376.052 192.425)" fill="#fff"/>
      <path id="Path_114" data-name="Path 114" d="M420.326-181.466l2.9-4.347.626.419-.078,3.118a16.849,16.849,0,0,1-.166,1.94l.016,0c.336-.615.677-1.152,1.125-1.823l1.218-1.825.529.353-2.9,4.346-.567-.378.091-3.127a16.754,16.754,0,0,1,.157-1.994l-.024-.007c-.333.57-.67,1.1-1.152,1.823l-1.239,1.857Z" transform="translate(-376.692 192.006)" fill="#fff"/>
    </g>
  </g>
</svg>
