<svg xmlns="http://www.w3.org/2000/svg" width="36.64" height="36.637" viewBox="0 0 36.64 36.637">
  <g id="Group_230" data-name="Group 230" transform="translate(-1377.361 -926.063)">
    <g id="Group_229" data-name="Group 229" transform="translate(1377.361 926.062)">
      <g id="Group_228" data-name="Group 228" transform="translate(0 0)">
        <path id="Path_117" data-name="Path 117" d="M1395.672,962.693c-1.764,0-3.528.02-5.291-.006a23.146,23.146,0,0,1-5.119-.437,9.454,9.454,0,0,1-7.5-7.63,19.225,19.225,0,0,1-.38-4.173q-.034-6.074,0-12.149a17.542,17.542,0,0,1,.577-4.959,9.435,9.435,0,0,1,7.446-6.874,19.151,19.151,0,0,1,4.172-.384q6.088-.035,12.177,0a17.885,17.885,0,0,1,4.8.534,9.429,9.429,0,0,1,7.047,7.543,23.33,23.33,0,0,1,.39,4.957q.031,5.249,0,10.5a22.694,22.694,0,0,1-.428,5.148,9.452,9.452,0,0,1-7.692,7.539,23.786,23.786,0,0,1-4.845.386C1399.237,962.712,1397.454,962.693,1395.672,962.693Zm.011-33.427c0,.018,0,.037,0,.055-1.474,0-2.949-.022-4.423.006a28.421,28.421,0,0,0-5.048.327,6.188,6.188,0,0,0-5.127,4.68,13.64,13.64,0,0,0-.405,3.577c-.032,3.77-.06,7.539-.044,11.309a23.635,23.635,0,0,0,.318,4.628,6.2,6.2,0,0,0,4.714,5.129,13.116,13.116,0,0,0,3.438.394q6.564.028,13.128,0a16.34,16.34,0,0,0,2.864-.269,6.156,6.156,0,0,0,5.181-4.719,13.7,13.7,0,0,0,.4-3.578q.029-6.424,0-12.848a14.965,14.965,0,0,0-.322-3.28,6.2,6.2,0,0,0-3.073-4.267,8.468,8.468,0,0,0-3.929-.968C1400.795,929.358,1398.239,929.32,1395.683,929.266Z" transform="translate(-1377.361 -926.062)" fill="#fff"/>
        <path id="Path_118" data-name="Path 118" d="M1497.358,1036.635a9.414,9.414,0,1,1-9.41,9.3A9.406,9.406,0,0,1,1497.358,1036.635Zm.01,3.277a6.132,6.132,0,1,0,6.121,6.13A6.146,6.146,0,0,0,1497.367,1039.911Z" transform="translate(-1479.046 -1027.734)" fill="#fff"/>
        <path id="Path_119" data-name="Path 119" d="M1701.23,1009.179a2.2,2.2,0,1,1,2.163-2.245A2.2,2.2,0,0,1,1701.23,1009.179Z" transform="translate(-1673.1 -998.45)" fill="#fff"/>
      </g>
    </g>
  </g>
</svg>
