<svg xmlns="http://www.w3.org/2000/svg" width="33.857" height="33.857" viewBox="0 0 33.857 33.857">
  <g id="Group_231" data-name="Group 231" transform="translate(-1835.303 -1253.46)">
    <rect id="Rectangle_79" data-name="Rectangle 79" width="7.079" height="22.571" transform="translate(1835.867 1264.592)" fill="#fff"/>
    <path id="Path_120" data-name="Path 120" d="M1923.157,1318.281q-.4-.044-.821-.061a8.259,8.259,0,0,0-6.977,3.194,5.013,5.013,0,0,0-.308.442v-3.02h-6.771v22.571h7.079v-10.6c0-1.532-.12-3.169.647-4.559a3.454,3.454,0,0,1,3.149-1.765,3.753,3.753,0,0,1,4,3.873v13.158h7.079v-14.722C1930.236,1321.749,1927.676,1318.77,1923.157,1318.281Z" transform="translate(-61.077 -54.192)" fill="#fff"/>
    <circle id="Ellipse_254" data-name="Ellipse 254" cx="4.104" cy="4.104" r="4.104" transform="translate(1835.303 1253.46)" fill="#fff"/>
  </g>
</svg>
