<svg width="47" height="47" viewBox="0 0 47 47" fill="none" xmlns="http://www.w3.org/2000/svg">
<g clip-path="url(#clip0_156_279)">
<path d="M46.0777 23.0389C46.0777 35.7622 35.7622 46.0777 23.0389 46.0777C10.3156 46.0777 0 35.7622 0 23.0389C0 10.3156 10.3156 0 23.0389 0C35.7648 0 46.0777 10.3156 46.0777 23.0389Z" fill="white"/>
<path d="M11.3686 23.813L11.468 23.6567L17.4613 14.2809C17.5489 14.1437 17.7548 14.1579 17.8211 14.307C18.8224 16.5509 19.6863 19.3417 19.2816 21.0791C19.1088 21.7939 18.6354 22.762 18.1028 23.6567C18.0342 23.787 17.9584 23.9148 17.8779 24.0378C17.84 24.0947 17.7761 24.1278 17.7075 24.1278H11.5438C11.3781 24.1278 11.281 23.9479 11.3686 23.813Z" fill="black"/>
<path d="M38.0804 25.5552V27.0393C38.0804 27.1245 38.0283 27.2003 37.9525 27.2334C37.4886 27.4322 35.9003 28.1613 35.2399 29.0797C33.5546 31.4254 32.267 34.7795 29.3886 34.7795H17.3807C13.1248 34.7795 9.67603 31.3189 9.67603 27.0488V26.9115C9.67603 26.7979 9.76832 26.7056 9.88195 26.7056H16.5759C16.7085 26.7056 16.8055 26.8286 16.7937 26.9588C16.7463 27.3943 16.8268 27.8394 17.0327 28.2441C17.4304 29.0513 18.2541 29.5555 19.1441 29.5555H22.458V26.9683H19.182C19.014 26.9683 18.9146 26.7742 19.0116 26.6369C19.0471 26.5825 19.0874 26.5257 19.1299 26.4618C19.44 26.0215 19.8827 25.3374 20.3229 24.5587C20.6235 24.0332 20.9147 23.4722 21.149 22.9089C21.1964 22.8071 21.2342 22.7029 21.2721 22.6011C21.336 22.4212 21.4023 22.2532 21.4496 22.0851C21.497 21.9431 21.5348 21.794 21.5727 21.6543C21.684 21.1762 21.7313 20.6696 21.7313 20.1441C21.7313 19.9382 21.7218 19.7228 21.7029 19.5169C21.6934 19.292 21.665 19.0671 21.6366 18.8423C21.6177 18.6434 21.5822 18.447 21.5443 18.241C21.497 17.9404 21.4307 17.6422 21.3549 17.3416L21.3289 17.228C21.2721 17.022 21.2248 16.8256 21.1585 16.6197C20.9715 15.9734 20.7561 15.3438 20.5288 14.7544C20.446 14.5201 20.3513 14.2952 20.2566 14.0704C20.117 13.7319 19.9749 13.4242 19.8448 13.133C19.7785 13.0004 19.7217 12.8797 19.6649 12.7566C19.601 12.617 19.5347 12.4773 19.4684 12.3448C19.4211 12.243 19.3666 12.1483 19.3288 12.0536L18.924 11.3057C18.8672 11.2039 18.9619 11.0832 19.0731 11.1139L21.6059 11.8004H21.613C21.6177 11.8004 21.6201 11.8027 21.6224 11.8027L21.9562 11.895L22.3231 11.9992L22.458 12.0371V10.5316C22.458 9.80496 23.0403 9.21558 23.7599 9.21558C24.1196 9.21558 24.4463 9.36233 24.6806 9.60138C24.9149 9.84048 25.0617 10.1671 25.0617 10.5316V12.7661L25.3316 12.8418C25.3529 12.849 25.3742 12.8584 25.3931 12.8726C25.4594 12.9223 25.554 12.9957 25.6748 13.0857C25.7695 13.1614 25.8712 13.2537 25.9943 13.3484C26.2381 13.5449 26.5293 13.7981 26.8488 14.0893C26.934 14.1627 27.0169 14.2384 27.0926 14.3142C27.5045 14.6976 27.9661 15.1473 28.4063 15.6444C28.5294 15.7841 28.6501 15.9261 28.7732 16.0752C28.8963 16.2267 29.0265 16.3758 29.1401 16.525C29.2892 16.7238 29.4502 16.9297 29.5898 17.1451C29.6561 17.2469 29.7319 17.3511 29.7958 17.4528C29.9757 17.725 30.1343 18.0067 30.2858 18.2884C30.3497 18.4186 30.4159 18.5606 30.4727 18.7003C30.6408 19.0766 30.7734 19.4601 30.8586 19.8435C30.8846 19.9264 30.9035 20.0163 30.913 20.0968V20.1158C30.9414 20.2293 30.9509 20.3501 30.9603 20.4731C30.9982 20.8661 30.9793 21.259 30.8941 21.6543C30.8586 21.8224 30.8112 21.9809 30.7544 22.149C30.6976 22.31 30.6408 22.478 30.5674 22.6366C30.4254 22.9656 30.2573 23.2947 30.0585 23.6024C29.9946 23.716 29.9188 23.8367 29.8431 23.9504C29.7602 24.071 29.675 24.1847 29.5993 24.2959C29.4952 24.4379 29.3839 24.5871 29.2703 24.7196C29.1685 24.8593 29.0644 24.9989 28.9507 25.122C28.7921 25.309 28.6406 25.4865 28.482 25.657C28.3874 25.7682 28.2856 25.8818 28.1814 25.9836C28.0797 26.0972 27.9755 26.199 27.8808 26.2937C27.7223 26.4523 27.5897 26.5754 27.4784 26.6771L27.2181 26.9162C27.1802 26.9494 27.1305 26.9683 27.0784 26.9683H25.0617V29.5555H27.5992C28.1672 29.5555 28.707 29.3543 29.1425 28.985C29.2916 28.8548 29.9425 28.2915 30.7118 27.4417C30.7378 27.4133 30.771 27.392 30.8089 27.3825L37.8176 25.3564C37.9478 25.3185 38.0804 25.4179 38.0804 25.5552Z" fill="black"/>
</g>
<defs>
<clipPath id="clip0_156_279">
<rect width="46.0777" height="46.0777" fill="white"/>
</clipPath>
</defs>
</svg>
