<svg xmlns="http://www.w3.org/2000/svg" width="53.81" height="76.304" viewBox="0 0 53.81 76.304">
  <g id="Group_275" data-name="Group 275" transform="translate(-266.095 -2036.834)">
    <path id="Icon_awesome-question" data-name="Icon awesome-question" d="M28.777,0C16.572,0,8.666,5,2.46,13.919a3.674,3.674,0,0,0,.792,5.027l6.6,5a3.67,3.67,0,0,0,5.085-.634c3.83-4.8,6.672-7.561,12.654-7.561,4.7,0,10.523,3.027,10.523,7.589,0,3.448-2.847,5.219-7.492,7.824C25.2,34.2,18.034,37.98,18.034,47.435v1.5A3.67,3.67,0,0,0,21.7,52.6H32.785a3.67,3.67,0,0,0,3.67-3.67v-.883c0-6.554,19.155-6.827,19.155-24.562C55.61,10.131,41.756,0,28.777,0ZM16.652,67.48Z" transform="translate(264.295 2036.834)" fill="#2c2c2c" opacity="0.7"/>
    <path id="Path_122" data-name="Path 122" d="M20.551,4.644,16.319.412a1.367,1.367,0,0,0-.347-.251l0,0a1.362,1.362,0,0,0-.617-.148h-4.8A.328.328,0,0,0,10.474,0,.285.285,0,0,0,10.4.011H5.6a1.36,1.36,0,0,0-.968.4L.4,4.644A1.364,1.364,0,0,0,0,5.687c0,.007,0,.013,0,.019a1.362,1.362,0,0,0,.4.874l9.874,9.874.007.006a.27.27,0,0,0,.03.024l.01.008a.282.282,0,0,0,.042.023l.013,0,.036.011.015,0a.275.275,0,0,0,.049,0h0a.29.29,0,0,0,.047,0l.015,0,.037-.011.011,0a.312.312,0,0,0,.043-.023l.009-.007a.288.288,0,0,0,.032-.026l.006-.005L20.551,6.58a1.359,1.359,0,0,0,.4-.955s0,0,0-.007,0,0,0-.006a1.36,1.36,0,0,0-.4-.968" transform="translate(280.675 2096.6)" fill="#2c2c2c" opacity="0.7"/>
  </g>
</svg>
