<svg xmlns="http://www.w3.org/2000/svg" width="57.028" height="1282.834" viewBox="0 0 57.028 1282.834">
  <g id="Group_274" data-name="Group 274" transform="translate(57.028) rotate(90)">
    <rect id="Rectangle_193" data-name="Rectangle 193" width="2.116" height="57.028" transform="translate(0 0)" fill="#3d3d3d"/>
    <rect id="Rectangle_194" data-name="Rectangle 194" width="2.116" height="22.101" transform="translate(35.576 0)" fill="#3d3d3d"/>
    <rect id="Rectangle_195" data-name="Rectangle 195" width="2.115" height="22.101" transform="translate(97.833 0)" fill="#3d3d3d"/>
    <rect id="Rectangle_196" data-name="Rectangle 196" width="2.115" height="22.101" transform="translate(160.09 0)" fill="#3d3d3d"/>
    <rect id="Rectangle_197" data-name="Rectangle 197" width="2.116" height="22.101" transform="translate(222.347 0)" fill="#3d3d3d"/>
    <rect id="Rectangle_198" data-name="Rectangle 198" width="2.115" height="22.101" transform="translate(284.603 0)" fill="#3d3d3d"/>
    <rect id="Rectangle_199" data-name="Rectangle 199" width="2.115" height="57.028" transform="translate(320.179 0)" fill="#3d3d3d"/>
    <rect id="Rectangle_200" data-name="Rectangle 200" width="2.115" height="57.028" transform="translate(640.36 0)" fill="#3d3d3d"/>
    <rect id="Rectangle_201" data-name="Rectangle 201" width="2.115" height="57.028" transform="translate(960.54 0)" fill="#3d3d3d"/>
    <rect id="Rectangle_202" data-name="Rectangle 202" width="2.115" height="57.028" transform="translate(1280.719 0)" fill="#3d3d3d"/>
    <rect id="Rectangle_203" data-name="Rectangle 203" width="2.115" height="22.101" transform="translate(354.452 0)" fill="#3d3d3d"/>
    <rect id="Rectangle_204" data-name="Rectangle 204" width="2.115" height="22.101" transform="translate(416.708 0)" fill="#3d3d3d"/>
    <rect id="Rectangle_205" data-name="Rectangle 205" width="2.115" height="22.101" transform="translate(478.966 0)" fill="#3d3d3d"/>
    <rect id="Rectangle_206" data-name="Rectangle 206" width="2.115" height="22.101" transform="translate(541.223 0)" fill="#3d3d3d"/>
    <rect id="Rectangle_207" data-name="Rectangle 207" width="2.115" height="22.101" transform="translate(603.48 0)" fill="#3d3d3d"/>
    <rect id="Rectangle_208" data-name="Rectangle 208" width="2.115" height="22.101" transform="translate(676.993 0)" fill="#3d3d3d"/>
    <rect id="Rectangle_209" data-name="Rectangle 209" width="2.115" height="22.101" transform="translate(739.249 0)" fill="#3d3d3d"/>
    <rect id="Rectangle_210" data-name="Rectangle 210" width="2.115" height="22.101" transform="translate(801.506 0)" fill="#3d3d3d"/>
    <rect id="Rectangle_211" data-name="Rectangle 211" width="2.115" height="22.101" transform="translate(863.764 0)" fill="#3d3d3d"/>
    <rect id="Rectangle_212" data-name="Rectangle 212" width="2.115" height="22.101" transform="translate(926.021 0)" fill="#3d3d3d"/>
    <rect id="Rectangle_213" data-name="Rectangle 213" width="2.116" height="22.101" transform="translate(995.057 0)" fill="#3d3d3d"/>
    <rect id="Rectangle_214" data-name="Rectangle 214" width="2.116" height="22.101" transform="translate(1057.314 0)" fill="#3d3d3d"/>
    <rect id="Rectangle_215" data-name="Rectangle 215" width="2.115" height="22.101" transform="translate(1119.571 0)" fill="#3d3d3d"/>
    <rect id="Rectangle_216" data-name="Rectangle 216" width="2.115" height="22.101" transform="translate(1181.828 0)" fill="#3d3d3d"/>
    <rect id="Rectangle_217" data-name="Rectangle 217" width="2.116" height="22.101" transform="translate(1244.085 0)" fill="#3d3d3d"/>
  </g>
</svg>
