<svg xmlns="http://www.w3.org/2000/svg" width="42.046" height="34.346" viewBox="0 0 42.046 34.346">
  <g id="Group_227" data-name="Group 227" transform="translate(-3164.044 -980.973)">
    <g id="Group_226" data-name="Group 226" transform="translate(3164.044 980.973)">
      <path id="Path_115" data-name="Path 115" d="M3164.044,1011.51a17.837,17.837,0,0,0,9.037-1.437,15.908,15.908,0,0,0,3.634-2.218,11.5,11.5,0,0,1-2.1-.34,8.693,8.693,0,0,1-5.009-3.7,8.472,8.472,0,0,1-.928-1.956c.1.006.17.005.24.017a8.534,8.534,0,0,0,3.42-.14.562.562,0,0,0,.173-.075,8.736,8.736,0,0,1-5.888-4.457,8.48,8.48,0,0,1-1.01-4.119,9.612,9.612,0,0,0,1.9.761,7.573,7.573,0,0,0,1.977.279,8.71,8.71,0,0,1-3.8-7.47,8.336,8.336,0,0,1,1.145-4.07,24.753,24.753,0,0,0,12.839,8.266,23.473,23.473,0,0,0,5.069.779c-.025-.153-.043-.275-.066-.4a8.623,8.623,0,0,1,6.534-10.019,8.461,8.461,0,0,1,8.16,2.349.34.34,0,0,0,.349.116,17.593,17.593,0,0,0,5.023-1.9c.066-.037.134-.072.25-.135-.036.113-.055.182-.079.25a8.623,8.623,0,0,1-3.466,4.332.685.685,0,0,0-.173.148,16.561,16.561,0,0,0,4.812-1.27.4.4,0,0,1-.108.209,17.291,17.291,0,0,1-3.921,4.031.426.426,0,0,0-.194.422,19.89,19.89,0,0,1-.048,2.578,23.844,23.844,0,0,1-.729,4.393,25.4,25.4,0,0,1-5.838,10.839,23.121,23.121,0,0,1-11.949,7.042,26.8,26.8,0,0,1-3.332.559,26.13,26.13,0,0,1-4.036.1,24.007,24.007,0,0,1-8.71-2.071,24.59,24.59,0,0,1-2.989-1.58C3164.17,1011.594,3164.107,1011.551,3164.044,1011.51Zm23.342.3.051,0c0-.034,0-.068-.007-.1h-.036C3187.391,1011.742,3187.388,1011.775,3187.386,1011.809Z" transform="translate(-3164.044 -980.973)" fill="#fff"/>
      <path id="Path_116" data-name="Path 116" d="M3398.717,1285.041l.009-.1h.035c0,.034,0,.068.007.1Z" transform="translate(-3375.375 -1254.706)" fill="#fff"/>
    </g>
  </g>
</svg>
