<svg xmlns="http://www.w3.org/2000/svg" width="36.638" height="36.638" viewBox="0 0 36.638 36.638">
  <path id="Path_121" data-name="Path 121" d="M1679.446,1661.127a18.319,18.319,0,1,0,18.319,18.319,18.317,18.317,0,0,0-18.319-18.319Zm-5.115,3.141a20.343,20.343,0,0,0-3.568,6.02h-4.455a16.054,16.054,0,0,1,8.022-6.02Zm-9.348,8.307h5.026a26.141,26.141,0,0,0-.822,5.724h-5.713a16.075,16.075,0,0,1,1.508-5.724Zm-1.508,8.017h5.713a26.19,26.19,0,0,0,.822,5.724h-5.02a16,16,0,0,1-1.514-5.724Zm2.839,8.01h4.449a20.25,20.25,0,0,0,3.562,6.009,15.987,15.987,0,0,1-8.011-6.009Zm11.985,6.63a16.493,16.493,0,0,1-5.076-6.63h5.076Zm0-8.921h-5.92a23.8,23.8,0,0,1-.91-5.719h6.83Zm0-8.011h-6.826a23.51,23.51,0,0,1,.923-5.724h5.9Zm0-8.011h-5.082a18.106,18.106,0,0,1,2-3.476,15.8,15.8,0,0,1,2.566-2.75c.2-.163.369-.3.52-.408Zm17.111,8.011H1689.7a26.118,26.118,0,0,0-.827-5.724h5.025a15.991,15.991,0,0,1,1.51,5.724Zm-2.833-8.011h-4.451a20.34,20.34,0,0,0-3.566-6.02,16.045,16.045,0,0,1,8.017,6.02Zm-11.985,0v-6.629a16.6,16.6,0,0,1,5.074,6.629Zm0,2.287h5.913a23.55,23.55,0,0,1,.912,5.724h-6.825Zm0,8.017h6.819a23.523,23.523,0,0,1-.922,5.719h-5.9Zm.514,14.232c-.2.167-.369.3-.514.408v-6.63h5.08a18.139,18.139,0,0,1-2,3.472,15.266,15.266,0,0,1-2.566,2.75Zm3.455-.213a20.246,20.246,0,0,0,3.566-6.009h4.451a16.032,16.032,0,0,1-8.017,6.009Zm9.341-8.3h-5.025a26.064,26.064,0,0,0,.827-5.719h5.707a16.091,16.091,0,0,1-1.51,5.719Zm0,0" transform="translate(-1661.127 -1661.127)" fill="#fff"/>
</svg>
