<svg width="601" height="105" viewBox="0 0 601 105" fill="none" xmlns="http://www.w3.org/2000/svg">
<path d="M88.6 62.6C86.8 63.7 84.7 63.9 83.1 63C81.1 61.8 79.9 59.1 79.9 55.4V44.1C79.9 38.7 77.8 34.8 74.2 33.8C68.1 32 63.5 39.5 61.8 42.3L51 59.6V38.3C50.9 33.4 49.3 30.5 46.3 29.6C44.3 29 41.3 29.3 38.4 33.7L14.3 72.3C11.1 66.2 9.40001 59.4 9.40001 52.5C9.40001 29.2 28.1 10.3 51 10.3C73.9 10.3 92.6 29.2 92.6 52.5V52.6V52.7C92.8 57.2 91.4 60.8 88.6 62.6ZM101.8 52.5V52.4V52.3C101.7 24 78.9 0.899994 51 0.899994C23 0.899994 0.200012 24 0.200012 52.5C0.200012 80.9 23 104.1 51 104.1C63.9 104.1 76.1 99.2 85.5 90.3C87.4 88.5 87.5 85.6 85.7 83.7C84 81.8 81.1 81.7 79.2 83.4C79.2 83.4 79.2 83.4 79.1 83.5C71.5 90.7 61.3 94.8 50.8 94.8C38.5 94.8 27.5 89.4 19.9 80.8L41.6 46V62.1C41.6 69.8 44.6 72.3 47.1 73C49.6 73.7 53.4 73.2 57.5 66.7L69.4 47.4C69.8 46.8 70.1 46.2 70.5 45.8V55.6C70.5 62.8 73.4 68.6 78.4 71.4C82.9 74 88.6 73.7 93.3 70.8C99.1 67 102.2 60.4 101.8 52.5ZM172.6 34.9C173.8 35.6 174.9 37.3 174.9 38.8C174.9 41.2 172.9 43.2 170.6 43.2C170 43.2 169.5 43 169 42.9C166.3 40.9 162.9 39.6 159.3 39.6C150.8 39.6 145 46.5 145 55.1C145 63.7 150.9 70.5 159.3 70.5C163.5 70.5 167.3 68.8 170.1 66.1C170.8 65.6 171.7 65.3 172.6 65.3C174.9 65.3 176.7 67.1 176.7 69.4C176.7 70.9 175.8 72.2 174.7 72.9C170.6 76.4 165.1 78.7 159.4 78.7C146.4 78.7 135.8 68 135.8 54.8C135.8 41.6 146.4 30.9 159.4 30.9C164.2 30.8 168.8 32.3 172.6 34.9ZM196.4 44.9C205.3 44.9 212.7 52.4 212.7 61.7C212.7 70.9 205.2 78.8 196.4 78.8C187.1 78.8 179.4 71 179.4 61.7C179.4 52.4 187.1 44.9 196.4 44.9ZM196.3 70.5C200.2 70.5 203.5 66.8 203.5 61.8C203.5 56.8 200.2 53.6 196.3 53.6C192.1 53.6 188.6 56.7 188.6 61.8C188.6 66.7 192.1 70.5 196.3 70.5ZM218.3 73.6V50C218.3 47.4 220.3 45.3 222.9 45.3C225.4 45.3 227.5 47.4 227.5 50V73.6C227.5 76.2 225.4 78.3 222.9 78.3C220.4 78.3 218.3 76.1 218.3 73.6ZM217.6 36.4C217.6 33.3 220 30.9 222.9 30.9C225.9 30.9 228.3 33.4 228.3 36.4C228.3 39.4 225.9 41.8 222.9 41.8C219.9 41.7 217.6 39.3 217.6 36.4ZM245.1 60.8V73.6C245.1 76.2 243 78.3 240.5 78.3C238 78.3 235.9 76.2 235.9 73.6V48.9C235.9 46.9 237.5 45.3 239.5 45.3C241.5 45.3 243 47 243 48.9C246.7 45.4 250 44.9 253.1 44.9C262.3 44.9 266.4 51.8 266.4 59.7V73.6C266.4 76.2 264.3 78.3 261.8 78.3C259.3 78.3 257.2 76.2 257.2 73.6V60.8C257.2 56.8 256.7 53.4 250.9 53.4C246.8 53.4 245.1 56.8 245.1 60.8ZM296.2 65.7C295.1 65.7 294.4 65.2 293.8 64.5L283.1 52.9V73.6C283.1 76.2 281 78.3 278.5 78.3C276 78.3 273.9 76.2 273.9 73.6V32.6C274.2 31.9 274.9 31.4 275.6 31.4C276.4 31.4 277.1 32.1 277.6 32.6L294.7 51.8C295.2 52.4 295.8 52.7 296.2 52.7C296.5 52.7 297.2 52.4 297.7 51.8L314.8 32.6C315.3 32.1 315.9 31.4 316.8 31.4C317.6 31.4 318.3 31.9 318.5 32.6V73.6C318.5 76.2 316.5 78.3 313.9 78.3C311.4 78.3 309.3 76.2 309.3 73.6V52.9L298.6 64.5C297.8 65.2 297.1 65.7 296.2 65.7ZM340.4 70.5C344.5 70.5 348 66.8 348 61.8C348 56.8 344.4 53.5 340.4 53.5C336.4 53.5 333.1 56.9 333.1 61.8C333.1 66.6 336.3 70.5 340.4 70.5ZM350.2 74.7L350 73.6C348.2 77.1 342.5 78.7 338.9 78.7C330.3 78.7 323.9 70.9 323.9 61.6C323.9 52.4 330.4 44.8 339.4 44.8C340.9 44.8 346.1 45.2 350.1 49.9L350.3 48.8C350.3 46.8 351.8 45.2 353.8 45.2C355.8 45.2 357.4 46.9 357.4 48.8V74.6C357.4 76.6 355.8 78.2 353.8 78.2C351.7 78.3 350.2 76.6 350.2 74.7ZM382.7 53.4H381.7C375.9 53.7 374.8 57 374.8 60.8V73.6C374.8 76.2 372.7 78.3 370.2 78.3C367.7 78.3 365.6 76.2 365.6 73.6V48.9C365.6 46.9 367.2 45.3 369.2 45.3C371.2 45.3 372.7 47 372.7 48.9C376.1 45.7 378.9 45 381.7 44.9H382.6C384.8 44.9 386.8 46.8 386.8 49.2C386.9 51.4 384.9 53.4 382.7 53.4ZM418.2 71.4C418.6 72.1 418.9 72.8 418.9 73.6C418.9 76 416.7 78.2 414.3 78.2C412.7 78.2 411.3 77 410.2 75.6L399.6 63.3V73.5C399.6 76.1 397.5 78.2 395 78.2C392.5 78.2 390.4 76.1 390.4 73.5V36C390.4 33.4 392.4 31.3 395 31.3C397.6 31.3 399.6 33.4 399.6 36V59.4L410.2 47.7C411.3 46.5 412.6 45.2 414.2 45.2C416.5 45.2 418.6 47.3 418.6 49.7C418.6 50.4 418.4 51.2 418 51.8L409.6 61L418.2 71.4ZM436.2 53.5C433.7 53.5 429.6 54.8 429.6 58.7H442.9C442.8 54.8 438.6 53.5 436.2 53.5ZM448.2 64.6H429.6C429.6 70.1 434.9 71 437.2 71C438.9 71 441.3 70.7 443.2 69.8C443.8 69.4 444.7 69.1 445.6 69.1C447.6 69.1 449.3 70.8 449.3 72.9C449.3 74.3 448.4 75.5 447.3 76.2C444.5 78.3 440.8 78.8 437.3 78.8C428 78.8 420.3 73.8 420.3 62.1C420.3 52.9 425 44.9 436 44.9C444.9 44.9 451.6 50.7 451.8 61C451.8 62.9 450.2 64.6 448.2 64.6ZM473.8 78.7H471.3C464.3 78.7 460.2 75.6 460.2 64.7V53.4H457.8C455.6 53.4 453.7 51.4 453.7 49.2C453.7 46.8 455.7 44.9 457.8 44.9H460.2V36.2C460.2 33.6 462.2 31.5 464.8 31.5C467.3 31.5 469.4 33.6 469.4 36.2V44.9H473.2C475.4 44.9 477.3 46.8 477.3 49.2C477.3 51.4 475.3 53.4 473.2 53.4H469.4V62.9C469.4 69.2 469.7 70.5 472.5 70.5H473.8C476 70.5 477.9 72.3 477.9 74.6C477.9 76.8 476 78.7 473.8 78.7ZM518.3 34.9C519.5 35.6 520.6 37.3 520.6 38.8C520.6 41.2 518.6 43.2 516.3 43.2C515.7 43.2 515.2 43 514.7 42.9C512 40.9 508.6 39.6 505 39.6C496.5 39.6 490.7 46.5 490.7 55.1C490.7 63.7 496.6 70.5 505 70.5C509.2 70.5 513 68.8 515.8 66.1C516.5 65.6 517.4 65.3 518.3 65.3C520.6 65.3 522.4 67.1 522.4 69.4C522.4 70.9 521.5 72.2 520.4 72.9C516.3 76.4 510.8 78.7 505.1 78.7C492.1 78.7 481.5 68 481.5 54.8C481.5 41.6 492.1 30.9 505.1 30.9C509.9 30.8 514.6 32.3 518.3 34.9ZM541.6 70.5C545.7 70.5 549.2 66.8 549.2 61.8C549.2 56.8 545.6 53.5 541.6 53.5C537.5 53.5 534.3 56.9 534.3 61.8C534.3 66.6 537.6 70.5 541.6 70.5ZM551.4 74.7L551.2 73.6C549.4 77.1 543.7 78.7 540.1 78.7C531.5 78.7 525.1 70.9 525.1 61.6C525.1 52.4 531.6 44.8 540.6 44.8C542.1 44.8 547.3 45.2 551.3 49.9L551.5 48.8C551.5 46.8 553 45.2 555 45.2C557 45.2 558.6 46.9 558.6 48.8V74.6C558.6 76.6 557 78.2 555 78.2C552.9 78.3 551.4 76.6 551.4 74.7ZM583.7 70.5C587.8 70.5 591 66.6 591 61.8C591 56.8 587.7 53.5 583.7 53.5C579.6 53.5 576.1 56.8 576.1 61.8C576.1 66.8 579.6 70.5 583.7 70.5ZM576.1 76V87.7C576.1 90.3 574 92.4 571.5 92.4C569 92.4 566.9 90.3 566.9 87.7V48.9C566.9 46.9 568.5 45.3 570.5 45.3C572.5 45.3 574 47 574 49.3C577.4 45.8 581.6 44.9 584.8 44.9C593.7 44.9 600.3 52.4 600.3 61.7C600.3 70.9 594 78.8 585.3 78.8C582.6 78.7 578.6 77.9 576.1 76Z" fill="#17181B"/>
</svg>
