<svg width="469" height="122" viewBox="0 0 469 122" fill="none" xmlns="http://www.w3.org/2000/svg">
<path d="M76.3 88.7L54.7 98.1V97.2C50.4 98.3 46 98.9 41.5 99.1C21.2 98.9 5.10002 88.3 4.90002 75.7V71C11.5 80.7 25.2 87.2 41.5 86.9C46.9 87.1 52.2 86.4 57.4 85L59.3 80.3C53.5 82.1 47.5 83.1 41.5 83.1C21.2 83.2 5.10002 72.6 4.90002 59.7V55.9C11.5 64.9 25.1 71.3 41.5 71C48.6 71.4 55.7 70.1 62.1 67.2L63 62.5C56.3 65.8 48.9 67.5 41.4 67.2C21.1 67.5 5.00003 56.9 4.80003 43.8V40C11.4 49.2 25.1 55.6 41.4 55.9C50.2 55.6 58.9 53.4 66.8 49.4L67.7 43.8C61.2 48.6 51.6 51.8 41.5 52.2C21.1 51.7 5.00003 41.1 4.80003 27.8C5.00003 15.2 21.1 4.49999 41.4 4.39999C53.5 4.59999 64.7 8.9 71.4 15.7L72.1 16.7H76.8L76.1 15.6C69.4 6.60001 56.1 0.600006 41.3 0.600006C18.9 0.600006 0.900024 13 0.900024 27.8V76.6C1.70002 91.1 19.2 102.9 41.3 102.9C56.1 102.8 69.2 97 76.3 88.7Z" fill="#030405"/>
<path d="M67.5 121.8L75.1 89.6L53.3 99.1L66.6 43.2H41L47.6 15.7H129.1L122.5 43.2H96L90.3 58.4L119.7 46.1L67.5 121.8ZM80.8 82.9L77 101.8L108.3 54.4L82.7 65.8L94.1 39.3H119.7L124.4 19.4H50.5L45.8 39.3H71.4L59.1 92.3L80.8 82.9Z" fill="#030405"/>
<path d="M179.7 34.1C179.7 35.5 179.3 36.8 178.8 38C178.2 39.2 177.4 40.3 176.4 41.2C174.1 43 171.3 44 168.4 43.8C166.8 43.9 165.2 43.6 163.7 43C162.2 42.4 160.9 41.4 159.8 40.2C157.7 37.8 156.7 34.4 156.7 30.1V28.4C156.6 25.9 157.1 23.5 158.1 21.2C159 19.2 160.4 17.6 162.2 16.4C164.4 15.2 166.9 14.6 169.4 14.8C171.9 15 174.3 15.9 176.3 17.4C178.4 19.3 179.6 22 179.8 24.8H174C174 23.3 173.5 21.9 172.5 20.8C171.4 19.9 169.9 19.5 168.5 19.6C167.7 19.5 166.8 19.7 166 20.1C165.2 20.5 164.6 21 164.1 21.7C163.1 23.1 162.6 25.3 162.6 28.2V30.3C162.6 33.4 163.1 35.6 164 37C164.5 37.7 165.1 38.3 165.9 38.6C166.7 39 167.5 39.1 168.4 39.1C169.9 39.2 171.3 38.8 172.4 37.9C173.4 36.9 173.9 35.5 173.9 34.1H179.7V34.1Z" fill="#030405"/>
<path d="M206.8 30C206.9 32.5 206.4 35 205.3 37.3C204.4 39.3 202.9 41 201.1 42.2C199.2 43.3 197 43.9 194.8 43.9C192.6 43.9 190.4 43.3 188.5 42.2C186.6 41 185.1 39.4 184.2 37.4C183.2 35.1 182.6 32.7 182.7 30.2V28.8C182.6 26.3 183.2 23.8 184.2 21.4C185.1 19.4 186.6 17.7 188.5 16.5C190.4 15.4 192.6 14.8 194.8 14.8C197 14.8 199.2 15.4 201.1 16.5C203 17.7 204.4 19.4 205.4 21.4C206.4 23.7 207 26.2 206.9 28.7V30H206.8ZM200.9 28.7C200.9 25.7 200.4 23.5 199.3 21.9C198.8 21.2 198.1 20.6 197.3 20.2C196.5 19.8 195.6 19.6 194.8 19.6C193.9 19.6 193 19.8 192.3 20.2C191.5 20.6 190.8 21.2 190.3 21.9C189.2 23.4 188.7 25.7 188.7 28.6V30C188.6 32.3 189.1 34.7 190.3 36.7C190.8 37.4 191.5 38 192.3 38.4C193.1 38.8 194 39 194.9 39C195.8 39 196.7 38.8 197.5 38.4C198.3 38 199 37.4 199.5 36.7C200.5 35.2 201.1 32.9 201.1 30V28.7H200.9Z" fill="#030405"/>
<path d="M217.2 43.4H211.4V15.1H217.2V43.4Z" fill="#030405"/>
<path d="M245.6 43.4H239.8L228.5 24.8V43.4H222.7V15.1H228.5L239.9 33.7V15.1H245.7V43.4H245.6Z" fill="#030405"/>
<path d="M271.4 19.9H262.7V43.5H257V19.9H248.5V15.2H271.5V19.9H271.4Z" fill="#030405"/>
<path d="M291.8 31.2H280.6V38.8H293.7V43.5H274.7V15.2H293.6V19.9H280.5V26.6H291.7V31.2H291.8Z" fill="#030405"/>
<path d="M303 38.7H315.4V43.4H297.2V15.1H303V38.7Z" fill="#030405"/>
<path d="M335.7 31.2H324.5V38.8H337.6V43.5H318.6V15.2H337.5V19.9H324.4V26.6H335.6V31.2H335.7Z" fill="#030405"/>
<path d="M363.5 39.9C362.3 41.3 360.8 42.3 359.1 42.8C357.1 43.5 354.9 43.9 352.7 43.8C350.4 43.9 348.2 43.3 346.3 42.2C344.4 41.1 342.9 39.5 342 37.5C340.9 35.3 340.4 32.8 340.5 30.3V28.4C340.4 25.9 340.9 23.4 341.9 21.1C342.8 19.1 344.2 17.5 346 16.4C347.9 15.3 350.1 14.7 352.3 14.8C355.7 14.8 358.3 15.6 360.2 17.2C362.2 19 363.4 21.5 363.6 24.2H357.9C357.8 22.8 357.2 21.6 356.2 20.6C355.2 19.8 353.9 19.4 352.5 19.5C351.6 19.5 350.7 19.6 349.9 20C349.1 20.4 348.4 21 347.9 21.7C346.9 23.2 346.3 25.4 346.3 28.3V30.1C346.3 33.1 346.9 35.3 348 36.8C348.6 37.6 349.3 38.2 350.2 38.6C351.1 39 352 39.2 353 39.1C355.2 39.1 356.7 38.6 357.7 37.7V32.8H352.4V28.5H363.5V39.9Z" fill="#030405"/>
<path d="M378.6 33.1H374V43.5H368.2V15.2H378.7C382 15.2 384.6 15.9 386.4 17.4C387.3 18.2 388 19.1 388.5 20.2C389 21.3 389.2 22.5 389.1 23.7C389.2 25.4 388.7 27.1 387.8 28.5C386.9 29.9 385.5 30.9 384 31.6L390.1 43.2V43.5H383.8L378.6 33.1ZM374 28.3H378.7C379.9 28.4 381.2 28 382.1 27.2C382.5 26.8 382.8 26.3 383 25.8C383.2 25.3 383.3 24.7 383.3 24.1C383.3 23.5 383.2 23 383.1 22.4C382.9 21.9 382.6 21.4 382.2 20.9C381.7 20.5 381.2 20.2 380.6 20C380 19.8 379.4 19.7 378.7 19.8H374V28.3Z" fill="#030405"/>
<path d="M409.5 37.6H399.3L397.4 43.4H391.2L401.7 15.1H407.1L417.7 43.4H411.5L409.5 37.6ZM400.9 32.9H408L404.4 22.3L400.9 32.9Z" fill="#030405"/>
<path d="M426.2 33.5V43.5H420.4V15.2H431.4C433.3 15.2 435.2 15.6 437 16.4C438.5 17.1 439.8 18.3 440.7 19.7C441.6 21.2 442 22.9 442 24.6C442.1 25.8 441.8 27.1 441.3 28.2C440.8 29.3 440.1 30.3 439.1 31.1C437.2 32.7 434.6 33.5 431.2 33.5H426.2ZM426.2 28.7H431.4C432.7 28.8 433.9 28.4 434.9 27.6C435.3 27.2 435.6 26.7 435.9 26.2C436.1 25.7 436.2 25.1 436.2 24.5C436.2 23.9 436.1 23.3 435.9 22.7C435.7 22.1 435.4 21.6 435 21.1C434.6 20.7 434 20.3 433.4 20.1C432.8 19.9 432.2 19.8 431.6 19.8H426.3V28.7H426.2Z" fill="#030405"/>
<path d="M469 43.4H463.2V31.3H451.8V43.4H446V15.1H451.8V26.6H463.2V15.1H469V43.4V43.4Z" fill="#030405"/>
<path d="M174.9 73.7H167.7V93.3H162.8V73.7H155.7V69.8H174.9V73.7Z" fill="#030405"/>
<path d="M181.9 77.7C182.5 77 183.2 76.4 184 76C184.8 75.6 185.7 75.4 186.6 75.4C190.4 75.4 192.3 77.6 192.4 82V93.2H187.7V82.1C187.8 81.3 187.5 80.5 187.1 79.9C186.8 79.6 186.5 79.4 186.1 79.3C185.7 79.2 185.3 79.1 184.9 79.2C184.3 79.2 183.7 79.3 183.2 79.6C182.7 79.9 182.2 80.3 181.9 80.8V93.2H177.2V68.3H181.9V77.7Z" fill="#030405"/>
<path d="M203.9 93.7C202.7 93.7 201.6 93.6 200.5 93.2C199.4 92.8 198.4 92.2 197.6 91.4C196.8 90.6 196.1 89.6 195.7 88.5C195.3 87.4 195.1 86.3 195.1 85.1V84.6C195.1 83 195.4 81.4 196.1 79.9C196.7 78.6 197.7 77.5 199 76.7C200.3 75.9 201.8 75.5 203.3 75.6C204.4 75.5 205.4 75.7 206.4 76.1C207.4 76.5 208.3 77.1 209 77.9C210.4 79.4 211.1 81.6 211.1 84.3V86.2H200C200.1 87.3 200.6 88.2 201.4 89C202.2 89.7 203.2 90.1 204.3 90C205.1 90 205.9 89.9 206.7 89.5C207.4 89.2 208.1 88.6 208.6 88L210.9 90.6C210.2 91.6 209.2 92.4 208.1 92.9C206.7 93.4 205.3 93.7 203.9 93.7ZM203.4 79.3C203 79.3 202.6 79.4 202.2 79.5C201.8 79.7 201.5 79.9 201.2 80.2C200.6 81 200.2 81.9 200.1 82.9H206.6V82.5C206.6 81.6 206.3 80.8 205.8 80.1C205.5 79.8 205.1 79.6 204.7 79.4C204.2 79.3 203.8 79.3 203.4 79.3Z" fill="#030405"/>
<path d="M223.3 93.3V79.2H220.7V75.8H223.3V74.3C223.2 73.5 223.4 72.6 223.7 71.8C224 71 224.4 70.3 225 69.7C226.3 68.6 228 68 229.7 68.1C230.5 68.1 231.3 68.2 232.1 68.4V72C231.6 71.9 231.2 71.8 230.7 71.9C228.9 71.9 228.1 72.7 228.1 74.4V75.8H231.6V79.2H228V93.3H223.3V93.3Z" fill="#030405"/>
<path d="M244.4 91.6C243.8 92.3 243.1 92.9 242.3 93.2C241.5 93.6 240.6 93.7 239.7 93.7C238.9 93.8 238.1 93.6 237.4 93.4C236.7 93.1 236 92.7 235.4 92.1C234.3 90.8 233.8 89.1 233.9 87.4V75.9H238.6V87.2C238.6 89 239.4 89.9 241.1 89.9C241.7 90 242.4 89.8 243 89.6C243.6 89.3 244.1 88.9 244.4 88.3V75.9H249.1V93.4H244.7L244.4 91.6Z" fill="#030405"/>
<path d="M258.1 71.5V75.8H261.1V79.2H258.1V87.9C258.1 88.4 258.2 88.9 258.5 89.3C258.7 89.5 258.9 89.6 259.2 89.7C259.4 89.8 259.7 89.8 260 89.8C260.5 89.8 260.9 89.8 261.4 89.7V93.2C260.5 93.5 259.5 93.6 258.6 93.6C255.3 93.6 253.6 91.9 253.6 88.6V79.2H251V75.8H253.6V71.5H258.1Z" fill="#030405"/>
<path d="M274.2 91.6C273.6 92.3 272.9 92.9 272.1 93.2C271.3 93.6 270.4 93.7 269.5 93.7C268.7 93.8 267.9 93.6 267.2 93.4C266.5 93.1 265.8 92.7 265.2 92.1C264.1 90.8 263.6 89.1 263.7 87.4V75.9H268.4V87.2C268.4 89 269.2 89.9 270.9 89.9C271.5 90 272.2 89.8 272.8 89.6C273.4 89.3 273.9 88.9 274.2 88.3V75.9H278.9V93.4H274.5L274.2 91.6Z" fill="#030405"/>
<path d="M292.1 80.2C291.5 80.1 291 80.1 290.4 80.1C288.6 80.1 287.5 80.7 286.9 81.9V93.4H282.2V75.9H286.6L286.7 78C287.1 77.3 287.6 76.7 288.3 76.2C289 75.8 289.8 75.5 290.6 75.6C291.1 75.6 291.6 75.7 292.1 75.8V80.2Z" fill="#030405"/>
<path d="M302.1 93.7C300.9 93.7 299.8 93.6 298.7 93.2C297.6 92.8 296.6 92.2 295.8 91.4C295 90.6 294.3 89.6 293.9 88.5C293.5 87.4 293.3 86.3 293.3 85.1V84.6C293.3 83 293.6 81.4 294.3 79.9C294.9 78.6 295.9 77.5 297.2 76.7C298.5 75.9 300 75.5 301.5 75.6C302.6 75.5 303.6 75.7 304.6 76.1C305.6 76.5 306.5 77.1 307.2 77.9C308.6 79.4 309.3 81.6 309.3 84.3V86.2H298.1C298.2 87.3 298.7 88.2 299.5 89C300.3 89.7 301.3 90.1 302.4 90C303.2 90 304 89.9 304.8 89.5C305.5 89.2 306.2 88.6 306.7 88L309 90.6C308.3 91.6 307.3 92.4 306.2 92.9C304.8 93.4 303.5 93.7 302.1 93.7ZM301.5 79.3C301.1 79.3 300.7 79.4 300.3 79.5C299.9 79.7 299.6 79.9 299.3 80.2C298.7 81 298.3 81.9 298.2 82.9H304.7V82.5C304.7 81.6 304.4 80.8 303.9 80.1C303.6 79.8 303.2 79.6 302.8 79.4C302.4 79.3 302 79.3 301.5 79.3Z" fill="#030405"/>
<path d="M319.5 84.4C319.5 82.8 319.8 81.2 320.5 79.8C321.1 78.5 322.1 77.4 323.4 76.6C324.7 75.8 326.2 75.5 327.8 75.5C328.9 75.5 329.9 75.6 330.9 76C331.9 76.4 332.8 76.9 333.6 77.7C335.2 79.3 336 81.4 336.1 83.6V84.8C336.2 87.2 335.4 89.5 333.9 91.3C332.3 92.9 330.1 93.7 327.9 93.7C325.6 93.7 323.5 92.8 321.9 91.3C320.3 89.5 319.5 87.1 319.6 84.7V84.4H319.5ZM324.1 84.8C324 86.1 324.3 87.5 325 88.6C325.3 89 325.7 89.3 326.2 89.6C326.7 89.8 327.2 89.9 327.7 90C328.2 90 328.7 89.9 329.2 89.7C329.7 89.5 330.1 89.1 330.4 88.7C331.1 87.4 331.5 86 331.4 84.5C331.5 83.2 331.1 81.8 330.4 80.7C330.1 80.3 329.7 79.9 329.2 79.7C328.7 79.5 328.2 79.4 327.7 79.4C327.2 79.4 326.7 79.5 326.2 79.7C325.7 79.9 325.3 80.3 325 80.7C324.4 81.9 324 83.3 324.1 84.8Z" fill="#030405"/>
<path d="M340.2 93.3V79.2H337.6V75.8H340.2V74.3C340.1 73.5 340.3 72.6 340.6 71.8C340.9 71 341.3 70.3 341.9 69.7C343.2 68.6 344.9 68 346.6 68.1C347.4 68.1 348.2 68.2 349 68.4V72C348.5 71.9 348.1 71.8 347.6 71.9C345.8 71.9 345 72.7 345 74.4V75.8H348.5V79.2H345V93.3H340.2V93.3Z" fill="#030405"/>
<path d="M363.5 75.8L363.6 77.8C364.2 77.1 365 76.5 365.8 76.1C366.7 75.7 367.6 75.5 368.6 75.6C369.6 75.5 370.5 75.7 371.3 76.2C372.1 76.7 372.8 77.4 373.2 78.3C373.8 77.4 374.6 76.7 375.5 76.3C376.4 75.8 377.4 75.6 378.5 75.7C379.3 75.6 380.1 75.8 380.8 76C381.5 76.3 382.2 76.7 382.7 77.3C383.7 78.8 384.2 80.5 384.1 82.3V93.5H379.4V82.3C379.5 81.5 379.3 80.8 378.8 80.1C378.5 79.8 378.2 79.6 377.8 79.5C377.4 79.4 377.1 79.3 376.7 79.4C376.1 79.4 375.4 79.5 374.9 79.9C374.4 80.3 374 80.8 373.8 81.4V93.4H369.1V82.2C369.2 81.4 369 80.6 368.5 80C368.2 79.7 367.9 79.6 367.6 79.4C367.2 79.3 366.9 79.2 366.5 79.3C365.9 79.3 365.3 79.4 364.8 79.7C364.3 80 363.9 80.4 363.6 81V93.4H358.9V75.9H363.5V75.8Z" fill="#030405"/>
<path d="M387 84.4C387 82.8 387.3 81.2 388 79.8C388.6 78.5 389.6 77.4 390.9 76.6C392.2 75.8 393.7 75.5 395.3 75.5C396.4 75.5 397.4 75.6 398.4 76C399.4 76.4 400.3 76.9 401.1 77.7C402.7 79.3 403.5 81.4 403.6 83.6V84.8C403.7 87.2 402.9 89.5 401.4 91.3C399.8 92.9 397.6 93.7 395.4 93.7C393.2 93.7 391 92.8 389.4 91.3C387.8 89.5 387 87.1 387.1 84.7V84.4H387ZM391.7 84.8C391.6 86.1 391.9 87.5 392.6 88.6C392.9 89 393.3 89.3 393.8 89.6C394.3 89.8 394.8 89.9 395.3 90C395.8 90.1 396.3 89.9 396.8 89.7C397.3 89.5 397.7 89.1 398 88.7C398.7 87.4 399.1 86 399 84.5C399.1 83.2 398.7 81.8 398 80.7C397.7 80.3 397.3 79.9 396.8 79.7C396.3 79.5 395.8 79.4 395.3 79.4C394.8 79.4 394.3 79.5 393.8 79.7C393.3 79.9 392.9 80.3 392.6 80.7C391.9 81.9 391.6 83.3 391.7 84.8Z" fill="#030405"/>
<path d="M410.8 75.8L410.9 77.8C411.5 77 412.3 76.4 413.1 76C414 75.6 414.9 75.4 415.9 75.4C416.7 75.3 417.4 75.5 418.2 75.7C418.9 76 419.6 76.4 420.1 77C421.1 78.4 421.6 80.1 421.5 81.9V93.2H416.8V82C416.9 81.2 416.6 80.4 416.2 79.8C415.9 79.6 415.6 79.4 415.2 79.2C414.8 79.1 414.4 79 414.1 79.1C413.5 79.1 412.9 79.2 412.4 79.5C411.9 79.8 411.4 80.2 411.2 80.8V93.2H406.5V75.7H410.8V75.8Z" fill="#030405"/>
<path d="M433.2 93.7C432 93.7 430.9 93.6 429.8 93.2C428.7 92.8 427.7 92.2 426.9 91.4C426.1 90.6 425.4 89.6 425 88.5C424.6 87.4 424.4 86.3 424.4 85.1V84.6C424.4 83 424.7 81.4 425.4 79.9C426 78.6 427 77.5 428.3 76.7C429.6 75.9 431.1 75.5 432.6 75.6C433.7 75.5 434.7 75.7 435.7 76.1C436.7 76.5 437.6 77.1 438.3 77.9C439.7 79.4 440.4 81.6 440.4 84.3V86.2H429.2C429.3 87.3 429.8 88.2 430.6 89C431.4 89.7 432.4 90.1 433.5 90C434.3 90 435.1 89.9 435.9 89.5C436.6 89.2 437.3 88.6 437.8 88L440.1 90.6C439.4 91.6 438.4 92.4 437.3 92.9C435.9 93.4 434.5 93.7 433.2 93.7ZM432.6 79.3C432.2 79.3 431.8 79.4 431.4 79.5C431 79.7 430.7 79.9 430.4 80.2C429.8 81 429.4 81.9 429.3 82.9H435.8V82.5C435.8 81.6 435.5 80.8 435 80.1C434.7 79.8 434.3 79.6 433.9 79.4C433.5 79.3 433 79.3 432.6 79.3Z" fill="#030405"/>
<path d="M449.3 86.7L452.5 75.8H457.5L450.5 96L450.1 96.9C449.7 97.9 449 98.8 448.1 99.4C447.2 100 446.1 100.3 445 100.3C444.3 100.3 443.6 100.2 442.9 100V96.5H443.6C444.3 96.5 445 96.4 445.6 96.1C446.1 95.8 446.4 95.3 446.6 94.8L447.2 93.4L441.1 75.8H446.1L449.3 86.7Z" fill="#030405"/>
</svg>
