<svg width="750" height="175" viewBox="0 0 750 175" fill="none" xmlns="http://www.w3.org/2000/svg">
<path d="M96.4 41.3V135.2C96.7 157.2 114.9 174.7 136.8 174.4C158.3 174.1 175.6 156.7 176 135.2V41.3C176.3 19.3 158.8 1.2 136.8 0.900001C114.8 0.600001 96.7 18 96.4 40C96.4 40.4 96.4 40.9 96.4 41.3ZM124.9 135.1V41.2C124.8 35.2 129.6 30.3 135.6 30.3C136 30.3 136.3 30.3 136.6 30.3C142.4 30.1 147.3 34.7 147.5 40.5V135C147.4 141 142.6 145.8 136.6 145.9C130.3 146.2 125.1 141.4 124.9 135.1ZM405.6 3.60001H325.2V32.1H351.2V172H379.7V32.1H405.7L405.6 3.60001ZM489.4 3.60001V135.2C489.6 141.2 484.9 146.2 478.8 146.4C472.8 146.6 467.8 141.9 467.6 135.8C467.6 135.6 467.6 135.4 467.6 135.1V3.60001H438.3V135.2C438.7 157.4 456.9 175.1 479.2 174.8C500.9 174.5 518.4 156.9 518.8 135.2V3.60001H489.4ZM750 32.1V3.60001H679.6V172H750V143.5H708.1V99.9H734.9V71.4H708.1V32.1H750V32.1ZM298.3 172H268.1L247.1 92.4C257.9 90.3 265.6 80.8 265.5 69.8V43.8C265.6 37.5 260.6 32.2 254.3 32.1C254.1 32.1 254 32.1 253.8 32.1H243V172.1H214.5V3.60001H253.9C275.5 3.40001 293.4 20.5 294.1 42.1V68.9C294.9 83 289 96.7 278.2 105.8L298.3 172ZM615.9 3.60001V95.8L586.6 3.60001H557.3V172H586.6V89.9L613.4 172H645.2V3.60001H615.9ZM0 6.10001V174.5H30.2V102.4H57.9V74H30.2V34.6H73.8V6.10001H0Z" fill="#010101"/>
</svg>
