<svg width="700" height="112" viewBox="0 0 700 112" fill="none" xmlns="http://www.w3.org/2000/svg">
<path d="M457.7 111.6C446.8 111.6 438.8 109.5 433.5 105.3C429 101.9 426.5 96.6 426.5 90.9H448.2C449.2 95.1 451 97.5 458 97.5C465.7 97.5 468.9 93.3 468.9 83.8V75.4H468.5C465.8 82.3 458.8 86.6 451.3 85.9C433.4 85.9 424.3 75.7 424.3 55.8C423.9 47.3 426.8 39.1 432.4 32.7C437.4 27.5 444.4 24.6 451.7 24.7C458.7 24 465.5 27.6 468.8 33.8H469.2V26.1H490.6V81.8C490.6 92 488.1 99.3 482.9 103.9C477.3 109.1 469.2 111.6 457.7 111.6ZM458.4 39.8C451.4 39.8 447.2 45.8 447.2 55.9C447.2 66.4 451 72 458 72C464 72 468.8 67.1 468.8 61.1V53.1C468.8 44.7 465 39.8 458.4 39.8ZM253.9 90.5C246.2 91.2 238.6 89.2 232.2 84.9C228 81.3 225.5 76.1 225.2 70.5H245.2C245.6 74.7 248.4 76.8 253.6 76.8C258.5 76.8 261.6 75 261.6 71.6C261.6 68.8 259.8 67.4 255.3 66.7L245.1 65.3C232.9 63.9 226.2 56.9 226.2 46C226.1 40.4 228.4 35.1 232.5 31.3C244.6 22.9 260.6 22.5 273.1 30.3C277.3 33.8 279.7 38.9 279.7 44.3H260C259.9 40.7 256.9 37.9 253.4 38H253C247.4 38 246.3 40.5 246.3 42.9C246.3 45.3 247.3 47.1 252.3 47.8L263.2 49.2C268 49.4 272.6 51.3 276.2 54.4C279.7 57.8 281.5 62.6 281.1 67.4C282 81.8 271.1 90.6 253.9 90.5ZM190.9 90.2C170.6 90.2 159 78.3 159 56.9C158.7 48.3 161.7 39.9 167.4 33.4C173.6 27.3 182.2 24.1 190.9 24.6C201.8 24.6 210.2 27.7 215.4 33.7C220.7 40.5 223.4 48.9 223.1 57.5V62.4H181.4C182.1 71.5 184.9 75.7 191.6 75.7C195.6 76.4 199.5 73.8 200.4 69.7H222.5C221 82.8 210.1 90.2 190.9 90.2ZM190.9 38C184.9 38 182.1 42.2 181.4 50.6H200.3V49.9C199.6 41.9 196.5 38 190.9 38ZM592.5 89.9C585.7 90.3 579.1 87.7 574.3 82.9C569.7 77.6 567.3 70.7 567.6 63.6C567.2 56.7 569.6 49.9 574.3 44.7C579.2 40 585.7 37.5 592.5 37.7C607.9 37.7 617.4 47.5 617.4 63.6C617.4 79.7 607.5 89.9 592.5 89.9ZM592.5 47.9C584.4 47.9 582.7 56.7 582.7 64C582.7 74.9 586.2 80.1 592.5 80.1C598.8 80.1 602.3 74.5 602.3 64C602.3 53.5 598.8 47.9 592.5 47.9ZM542.4 89.9C535.6 90.3 529 87.7 524.2 82.9C519.8 77.6 517.5 70.9 517.9 64C517.9 47.9 527.4 38.1 542.8 38.1C556.8 38.1 565.2 45.1 565.6 57H551.3C551 52.8 549.2 47.9 542.9 47.9C534.1 47.9 533.1 58 533.1 64C533.1 74.9 536.3 80.1 542.9 80.1C547.7 80.1 551.6 76.3 551.7 71.5C551.7 71.4 551.7 71.4 551.7 71.3V70.3H565.7C565.7 76 563.3 81.3 559 85.1C554 88.3 548.3 90 542.4 89.9ZM307.1 89.5C301.7 90 296.3 88.4 292 85C287.8 80.6 285.6 74.6 286 68.5V8.99998H307.8V26.2H320.8V41.6H308.2V64.4C308.2 71 310.3 73.5 316.3 73.5C317.7 73.6 319.1 73.4 320.5 73.1V88.8C315.9 89.1 311.7 89.5 307.1 89.5ZM668.8 88.5H654.1V59.4C654.4 56.6 653.9 53.9 652.7 51.4C651.3 49.3 648.9 48.2 646.4 48.6C640.4 48.6 636.9 52.8 636.9 59.8V88.5H622.2V39.1H636.2V47.2C639.1 41.4 645.1 37.8 651.6 38.1C660 38.1 664.9 41.6 667 48.3H667.3C670.1 41.9 676.5 37.9 683.4 38.1C694.6 38.1 699.9 44.1 699.9 56.3V88.5H685.2V59.5C685.5 56.7 685 54 683.8 51.5C682.4 49.4 680 48.3 677.5 48.7C671.5 48.7 668 52.9 668 59.9L668.8 88.5ZM378.2 88.5H355.8V26.2H377.5V36.3H377.9C381.8 28.9 389.8 24.4 398.2 25.1C406.2 25.1 411.9 27.2 415.4 31.4C419 36.8 420.6 43.2 419.9 49.6V88.5H397.5V53.1C397.8 50 397.2 46.8 395.7 44C394.1 41.8 391.4 40.6 388.7 40.9C382.1 40.9 378.6 45.1 378.6 53.5L378.2 88.5ZM53.9 88.5H31.5V26.2H53.2V36.3H53.5C57.4 28.9 65.4 24.4 73.8 25.1C81.8 25.1 87.5 27.2 91 31.4C94.6 36.8 96.2 43.2 95.6 49.6V88.5H73.2V53.1C73.5 50 72.9 46.8 71.4 44C69.8 41.8 67.1 40.6 64.4 40.9C57.7 40.9 54.2 45.1 54.2 53.5L53.9 88.5ZM513.4 88.5H498V73.8H513.4V88.5ZM348.4 88.5H326V26.2H348.4V88.5ZM139.7 88.5H116.6L94.5 26.2H117L125 53.2C127.1 60.9 128.9 69 128.9 69.3H129.3C130.4 64 131.4 58.8 132.8 53.5L140.9 26.5H162.6L139.7 88.5ZM23.1 88.5H0V0.299988H23.1V88.5Z" fill="#060606"/>
</svg>
